<svg width="32" height="32" viewBox="0 0 32 32" fill="none" xmlns="http://www.w3.org/2000/svg">
  <defs>
    <linearGradient id="bgGradient" x1="0%" y1="0%" x2="100%" y2="100%">
      <stop offset="0%" style="stop-color:#16a34a;stop-opacity:1" />
      <stop offset="100%" style="stop-color:#15803d;stop-opacity:1" />
    </linearGradient>
  </defs>
  <!-- Rounded rectangle background with gradient -->
  <rect width="32" height="32" rx="6" fill="url(#bgGradient)"/>
  <!-- Leaf icon (Lucide Leaf icon path) -->
  <path d="M11 20A7 7 0 0 1 9.8 6.1C15.5 5 17 4.48 19 7c0 5.2-2.2 8.1-4 11L11 20Z" fill="white"/>
  <path d="M2 21c0-2.5 2.9-4.9 6.5-4.9C10.8 16.1 13 18.5 13 21s-2.2 4.9-4.5 4.9C4.9 25.9 2 23.5 2 21Z" fill="white" opacity="0.8"/>
  <path d="M5.5 17.5 11 12" stroke="white" stroke-width="1.5" stroke-linecap="round"/>
</svg>